<!--?xml version="1.0" standalone="no"?-->
              <svg id="sw-js-blob-svg" viewBox="0 0 100 100" xmlns="http://www.w3.org/2000/svg" version="1.1">
                    <defs> 
                        <linearGradient id="sw-gradient" x1="0" x2="1" y1="1" y2="0">
                            <stop id="stop1" stop-color="rgba(82, 121, 65, 1)" offset="0%"></stop>
                            <stop id="stop2" stop-color="rgba(82, 121, 65, 1)" offset="100%"></stop>
                        </linearGradient>
                    </defs>
                <path fill="none" d="M25.8,-35.5C32.3,-30.7,35.7,-21.7,37.1,-13.1C38.4,-4.5,37.7,3.8,35.6,12C33.6,20.2,30.1,28.4,23.9,33.6C17.7,38.8,8.9,41.1,0.4,40.5C-8.1,40,-16.1,36.7,-23.6,31.9C-31.1,27.1,-38,20.8,-41.7,12.7C-45.5,4.6,-46.2,-5.3,-43.4,-14.1C-40.6,-23,-34.3,-30.8,-26.5,-35.1C-18.7,-39.5,-9.3,-40.6,0.1,-40.8C9.6,-41,19.2,-40.3,25.8,-35.5Z" width="100%" height="100%" transform="translate(50 50)" stroke-width="1" style="transition: 0.3s;" stroke="url(#sw-gradient)"></path>
              </svg>